<svg xmlns="http://www.w3.org/2000/svg" viewBox="0 0 512 512">
  <defs>
    <linearGradient id="g" x1="0" x2="1" y1="0" y2="1">
      <stop offset="0%" stop-color="#136f63" />
      <stop offset="100%" stop-color="#11454f" />
    </linearGradient>
  </defs>
  <rect x="24" y="24" width="464" height="464" rx="110" fill="url(#g)" />
  <rect x="96" y="150" width="320" height="210" rx="26" fill="#f3faf7" />
  <rect x="96" y="184" width="320" height="42" fill="#f4b942" />
  <path d="M162 300h74v26h-74zm108 0h80v26h-80z" fill="#136f63" />
  <path d="M363 361c22-7 36-22 43-45-10 8-24 12-39 10 9-6 16-16 18-28-10 6-21 10-33 12-9-10-23-16-37-16-29 0-52 24-52 53 0 4 0 7 1 10-43-2-81-22-107-54-4 7-7 15-7 25 0 18 9 34 22 43-8 0-15-2-22-6v1c0 25 17 46 40 51-4 1-9 2-14 2-3 0-6 0-10-1 7 22 27 37 51 37-19 15-43 24-69 24h-13c23 15 50 23 79 23 95 0 146-80 146-149v-7c10-7 18-16 24-26z" fill="#f4b942" />
</svg>
